<svg xmlns="http://www.w3.org/2000/svg" viewBox="660 320 300 200">
  <path
    id="path1"
    d="M884.2544368 478.29797344c-9.67792514.0255-23.53732532-.0852825-40.25977555-.6342825-33.44602544-1.09800002-73.92262598-6.3592051-108.01760394-31.11621042-36.98199795-26.85399786-44.19355555-59.3587208-39.1435505-85.13671614 0 0-15.8825777-5.66237257-37.1425805-5.38037257V333.868769c25.98500287 1.32800253 51.4306657 10.22021265 51.4306657 10.22021265 22.4049978-13.86399768 83.2937186-26.82066786 128.7216692-1.28466752 44.1459756 24.81600033 53.81542575 73.7575135 57.7324508 102.49951637 2.031 14.9079977 1.853025 32.80664294 1.853025 32.80664294s-5.49645006.162-15.1743002.1875zm-21.0498003-21.13037278c-13.47900017-15.0609977-69.72930092-59.5804358-138.50833684-85.79443615-.501-.1910025-5.25861757 36.5783105 41.62941056 64.0913109 38.0010005 22.2990003 96.8789263 21.7031253 96.8789263 21.7031253zm12.09810017-10.52051264s-1.50217502-54.19388322-43.72117558-80.60888358c-47.83102568-29.9250004-93.15923378-12.39894016-92.65723628-12.21093766 47.64103564 17.78600274 104.6284364 53.3498332 136.37841182 92.81982124z"
  ></path>
  <path
    id="path2"
    fill="#d6ee00"
    d="M863.2046365 457.16760066s-58.87792578.595875-96.87892628-21.7031253C719.4376971 407.951475 724.19529966 371.182162 724.69629966 371.3731645c68.77903592 26.21400037 125.02933667 70.73343847 138.50833685 85.79443617zm12.09810017-10.52051264c-31.74997542-39.46999553-88.73737618-75.0338185-136.37841182-92.81982124-.5019975-.1880025 44.8262106-17.71406274 92.65723624 12.21093766 42.21900052 26.41500036 43.72117554 80.60888358 43.72117554 80.60888358z"
  ></path>
</svg>
